<svg xmlns="http://www.w3.org/2000/svg" viewBox="0 0 80 80" role="img" aria-label="GitHub">
  <rect width="80" height="80" rx="12" fill="#111827"/>
  <circle cx="40" cy="40" r="22" fill="#e5e7eb"/>
  <path fill="#111827" d="M40 22c-10 0-18 8-18 18 0 8 5 14.8 12 17.2.9.2 1.1-.4 1.1-.8v-3c-4.9 1.1-5.9-2.1-5.9-2.1-.8-2-1.9-2.6-1.9-2.6-1.6-1.1.1-1.1.1-1.1 1.8.1 2.8 1.8 2.8 1.8 1.6 2.7 4.2 1.9 5.2 1.5.2-1.2.6-1.9 1.1-2.3-3.9-.4-8-2-8-8.6 0-1.9.7-3.4 1.8-4.6-.2-.4-.8-2.2.2-4.5 0 0 1.5-.5 4.8 1.8 1.4-.4 2.9-.6 4.4-.6s3 .2 4.4.6c3.3-2.3 4.8-1.8 4.8-1.8 1 2.3.4 4.1.2 4.5 1.1 1.2 1.8 2.7 1.8 4.6 0 6.6-4.1 8.2-8 8.6.6.6 1.2 1.7 1.2 3.4v5c0 .4.2 1 1.1.8 7-2.4 12-9.2 12-17.2 0-10-8-18-18-18z"/>
</svg>
